<svg id="svg" version="1.1" xmlns="http://www.w3.org/2000/svg" xmlns:xlink="http://www.w3.org/1999/xlink" width="400"
     height="93.64991717283269" viewBox="0, 0, 400,93.64991717283269">
    <g id="svgg">
        <path id="path0"
              d="M228.819 18.902 C 228.781 18.940,228.487 19.002,228.167 19.041 C 227.846 19.080,227.471 19.154,227.333 19.205 C 227.196 19.256,226.633 19.389,226.083 19.501 C 225.533 19.612,225.008 19.761,224.917 19.831 C 224.825 19.902,224.563 20.014,224.333 20.081 C 222.030 20.755,218.482 23.367,216.384 25.932 L 215.851 26.583 215.842 23.575 C 215.836 21.468,215.773 20.507,215.633 20.367 C 215.294 20.027,207.233 20.087,207.101 20.430 C 207.046 20.575,207.000 36.814,207.000 56.516 L 207.000 92.339 211.542 92.294 L 216.083 92.250 216.168 79.417 C 216.215 72.358,216.271 66.671,216.293 66.779 C 216.376 67.181,219.614 70.285,220.362 70.679 C 220.575 70.791,220.787 70.937,220.833 71.003 C 220.994 71.234,222.883 72.167,223.190 72.167 C 223.361 72.167,223.500 72.230,223.500 72.307 C 223.500 72.472,224.630 72.833,225.144 72.833 C 225.340 72.833,225.500 72.899,225.500 72.978 C 225.500 73.613,235.057 73.639,235.917 73.006 C 236.008 72.938,236.552 72.787,237.125 72.669 C 237.698 72.551,238.167 72.390,238.167 72.311 C 238.167 72.231,238.292 72.167,238.445 72.167 C 238.713 72.167,240.741 71.242,241.083 70.964 C 241.492 70.632,242.529 70.000,242.666 70.000 C 242.749 70.000,242.877 69.906,242.950 69.791 C 243.023 69.676,243.346 69.385,243.667 69.144 C 244.620 68.431,246.548 66.471,247.171 65.584 C 247.489 65.130,247.807 64.681,247.877 64.587 C 248.650 63.552,249.975 60.983,250.329 59.833 C 250.456 59.421,250.618 59.005,250.688 58.910 C 250.759 58.814,250.896 58.364,250.994 57.910 C 251.092 57.455,251.242 56.933,251.326 56.750 C 251.531 56.306,251.833 54.770,251.833 54.172 C 251.833 53.910,251.900 53.669,251.981 53.639 C 252.152 53.574,252.500 50.231,252.500 48.650 C 252.500 48.054,252.579 47.487,252.676 47.391 C 252.852 47.215,252.801 43.786,252.593 41.833 C 252.540 41.329,252.414 40.054,252.315 39.000 C 252.216 37.946,252.083 37.046,252.019 37.000 C 251.956 36.954,251.811 36.359,251.698 35.678 C 251.584 34.997,251.428 34.359,251.351 34.261 C 251.273 34.163,251.118 33.690,251.005 33.208 C 250.892 32.727,250.742 32.333,250.671 32.333 C 250.600 32.333,250.495 32.099,250.437 31.812 C 250.310 31.174,249.001 28.565,248.500 27.948 C 247.753 27.031,247.500 26.685,247.500 26.583 C 247.500 25.537,240.783 20.567,238.672 20.052 C 238.440 19.995,238.213 19.894,238.167 19.827 C 238.081 19.702,236.236 19.256,234.750 19.001 C 233.912 18.857,228.949 18.774,228.819 18.902 M273.500 18.939 C 273.087 18.977,272.600 19.074,272.417 19.154 C 272.233 19.235,271.521 19.392,270.833 19.503 C 270.146 19.614,269.508 19.763,269.417 19.833 C 269.325 19.904,268.987 20.016,268.667 20.083 C 267.742 20.275,263.500 22.279,263.500 22.523 C 263.500 22.590,263.331 22.697,263.125 22.762 C 262.919 22.827,262.591 23.038,262.396 23.231 C 262.201 23.425,261.837 23.754,261.586 23.962 C 261.023 24.429,259.709 26.105,259.575 26.525 C 259.522 26.694,259.408 26.833,259.322 26.833 C 259.237 26.833,259.167 26.906,259.167 26.995 C 259.167 27.084,258.988 27.553,258.769 28.037 C 258.550 28.521,258.315 29.179,258.248 29.500 C 258.180 29.821,258.063 30.123,257.987 30.172 C 257.911 30.220,257.764 30.970,257.660 31.838 C 257.556 32.706,257.402 33.547,257.319 33.706 C 257.235 33.865,257.167 34.448,257.167 35.001 L 257.167 36.006 261.458 35.961 L 265.749 35.917 265.867 34.968 C 266.213 32.198,268.226 28.760,269.794 28.262 C 269.999 28.197,270.167 28.084,270.167 28.010 C 270.167 27.937,270.506 27.782,270.921 27.665 C 271.336 27.549,271.711 27.396,271.755 27.326 C 271.799 27.255,272.378 27.109,273.042 27.001 C 273.706 26.894,274.380 26.737,274.539 26.653 C 274.938 26.442,280.119 26.455,280.250 26.667 C 280.307 26.758,280.584 26.833,280.866 26.833 C 281.644 26.833,283.500 27.206,283.500 27.362 C 283.500 27.438,283.625 27.500,283.778 27.500 C 284.964 27.500,287.751 29.672,288.268 31.000 C 288.429 31.412,288.641 31.803,288.739 31.869 C 289.150 32.143,288.960 37.178,288.511 37.917 C 287.868 38.975,287.047 39.643,286.018 39.946 C 284.917 40.271,285.018 40.254,282.250 40.574 C 281.058 40.713,279.821 40.871,279.500 40.927 C 279.179 40.983,277.792 41.158,276.417 41.315 C 275.042 41.473,273.804 41.647,273.667 41.702 C 273.529 41.757,272.423 41.893,271.208 42.005 C 269.994 42.117,269.000 42.257,269.000 42.317 C 269.000 42.376,268.427 42.516,267.728 42.627 C 267.028 42.739,266.371 42.896,266.269 42.977 C 266.167 43.058,265.690 43.223,265.208 43.343 C 264.727 43.464,264.333 43.624,264.333 43.698 C 264.333 43.773,264.240 43.833,264.125 43.833 C 263.867 43.833,261.827 44.844,261.541 45.114 C 261.426 45.223,261.182 45.359,260.999 45.417 C 260.816 45.475,260.667 45.587,260.667 45.667 C 260.667 45.746,260.534 45.853,260.371 45.905 C 259.973 46.031,257.647 48.271,257.158 49.000 C 256.942 49.321,256.721 49.621,256.665 49.667 C 256.610 49.712,256.466 49.994,256.345 50.292 C 256.225 50.590,256.075 50.833,256.011 50.833 C 255.948 50.833,255.796 51.227,255.674 51.708 C 255.552 52.190,255.390 52.624,255.313 52.675 C 255.236 52.725,255.090 53.362,254.988 54.091 C 254.886 54.820,254.735 55.547,254.652 55.706 C 254.460 56.073,254.451 60.283,254.642 60.402 C 254.721 60.450,254.833 60.953,254.892 61.519 C 254.952 62.086,255.113 62.774,255.250 63.050 C 255.388 63.326,255.500 63.628,255.500 63.721 C 255.500 63.952,256.494 65.998,256.820 66.439 C 256.965 66.635,257.196 66.970,257.333 67.184 C 258.100 68.375,261.702 71.500,262.309 71.500 C 262.414 71.500,262.500 71.575,262.500 71.667 C 262.500 71.758,262.573 71.833,262.662 71.833 C 262.751 71.833,263.219 72.012,263.703 72.231 C 264.187 72.450,264.846 72.684,265.167 72.751 C 265.487 72.817,265.825 72.930,265.917 73.000 C 266.726 73.624,275.774 73.629,276.583 73.006 C 276.675 72.935,277.256 72.784,277.875 72.670 C 278.494 72.556,279.000 72.405,279.000 72.335 C 279.000 72.265,279.226 72.163,279.503 72.108 C 279.779 72.052,280.419 71.818,280.924 71.587 C 281.430 71.356,281.916 71.167,282.005 71.167 C 282.094 71.167,282.167 71.108,282.167 71.037 C 282.167 70.965,282.373 70.819,282.625 70.712 C 282.877 70.604,283.383 70.327,283.750 70.096 C 284.117 69.865,284.642 69.551,284.917 69.398 C 285.192 69.246,285.477 69.019,285.550 68.894 C 285.623 68.769,285.771 68.667,285.877 68.667 C 285.984 68.667,286.224 68.518,286.411 68.337 C 286.597 68.156,287.294 67.506,287.958 66.893 C 288.623 66.280,289.167 65.678,289.167 65.556 C 289.167 64.859,289.454 65.518,289.629 66.615 C 289.741 67.320,289.893 67.939,289.966 67.990 C 290.040 68.041,290.193 68.402,290.306 68.792 C 290.420 69.181,290.585 69.500,290.673 69.500 C 290.761 69.500,290.833 69.604,290.833 69.731 C 290.833 70.166,292.573 71.692,293.667 72.215 C 295.255 72.976,302.667 73.068,302.667 72.327 C 302.667 72.251,302.873 72.165,303.125 72.136 L 303.583 72.083 303.583 68.750 L 303.583 65.417 302.936 65.364 C 302.581 65.334,302.209 65.391,302.111 65.489 C 301.623 65.977,298.500 65.418,298.500 64.841 C 298.500 64.758,298.369 64.559,298.208 64.399 C 297.935 64.126,297.911 62.999,297.833 46.859 C 297.768 33.268,297.706 29.596,297.542 29.542 C 297.427 29.503,297.333 29.302,297.333 29.094 C 297.333 28.667,297.005 27.626,296.830 27.500 C 296.767 27.454,296.623 27.135,296.511 26.792 C 296.399 26.448,296.238 26.167,296.154 26.167 C 296.069 26.167,296.000 26.084,296.000 25.982 C 296.000 25.299,292.967 22.443,291.872 22.096 C 291.668 22.031,291.500 21.908,291.500 21.822 C 291.500 21.737,291.425 21.667,291.334 21.667 C 291.242 21.667,290.691 21.442,290.109 21.167 C 289.527 20.892,288.927 20.667,288.776 20.667 C 288.624 20.667,288.500 20.602,288.500 20.523 C 288.500 20.444,288.048 20.283,287.495 20.166 C 286.942 20.048,286.455 19.896,286.413 19.827 C 286.370 19.758,285.679 19.613,284.876 19.504 C 284.073 19.396,283.267 19.225,283.083 19.126 C 282.751 18.945,275.065 18.795,273.500 18.939 M374.250 18.938 C 373.792 18.976,373.267 19.072,373.083 19.151 C 372.900 19.230,372.150 19.386,371.417 19.497 C 370.683 19.608,370.008 19.757,369.917 19.828 C 369.825 19.899,369.356 20.049,368.875 20.161 C 368.394 20.274,368.000 20.434,368.000 20.517 C 368.000 20.599,367.895 20.667,367.767 20.667 C 367.455 20.667,364.265 22.314,364.194 22.511 C 364.164 22.597,364.066 22.667,363.976 22.667 C 363.780 22.667,362.471 23.666,362.283 23.958 C 362.210 24.073,362.066 24.167,361.963 24.167 C 361.697 24.167,359.543 26.395,358.660 27.583 C 358.251 28.133,357.785 28.729,357.625 28.906 C 357.465 29.084,357.333 29.328,357.333 29.448 C 357.333 29.568,357.267 29.667,357.187 29.667 C 357.106 29.667,356.942 29.910,356.821 30.208 C 356.701 30.506,356.552 30.787,356.490 30.833 C 356.260 31.004,355.333 32.891,355.333 33.190 C 355.333 33.361,355.259 33.500,355.169 33.500 C 355.079 33.500,354.920 33.837,354.816 34.250 C 354.712 34.662,354.571 35.000,354.503 35.000 C 354.435 35.000,354.282 35.469,354.164 36.042 C 354.047 36.615,353.892 37.160,353.820 37.253 C 353.748 37.346,353.605 37.946,353.501 38.586 C 353.397 39.226,353.244 39.900,353.162 40.083 C 352.559 41.427,352.548 52.332,353.148 53.750 C 353.225 53.933,353.403 54.646,353.543 55.333 C 353.875 56.965,354.273 58.346,354.583 58.940 C 354.719 59.202,354.832 59.478,354.832 59.552 C 354.833 59.627,355.021 60.098,355.250 60.599 C 355.479 61.100,355.667 61.583,355.667 61.672 C 355.667 61.761,355.737 61.833,355.823 61.833 C 355.908 61.833,356.073 62.096,356.189 62.417 C 356.305 62.738,356.448 63.000,356.507 63.000 C 356.565 63.000,356.700 63.190,356.806 63.423 C 356.912 63.656,357.076 63.937,357.170 64.048 C 357.264 64.159,357.696 64.700,358.131 65.250 C 359.240 66.655,360.243 67.667,361.500 68.650 C 362.096 69.116,362.693 69.592,362.827 69.707 C 362.961 69.822,363.200 69.992,363.357 70.083 C 365.207 71.163,365.832 71.500,365.985 71.500 C 366.085 71.500,366.167 71.568,366.167 71.651 C 366.167 71.734,366.542 71.899,367.000 72.016 C 367.458 72.134,367.833 72.285,367.833 72.353 C 367.833 72.421,368.265 72.565,368.792 72.673 C 369.319 72.781,369.825 72.930,369.917 73.005 C 370.010 73.079,370.872 73.224,371.834 73.326 C 372.796 73.429,373.958 73.576,374.417 73.653 C 375.307 73.801,375.830 73.787,378.833 73.530 C 381.188 73.329,382.365 73.163,382.583 73.001 C 382.675 72.933,383.256 72.784,383.875 72.670 C 384.494 72.556,385.000 72.408,385.000 72.341 C 385.000 72.274,385.412 72.127,385.917 72.015 C 386.421 71.902,386.833 71.740,386.833 71.655 C 386.833 71.570,386.927 71.500,387.042 71.500 C 387.354 71.500,389.397 70.448,389.550 70.208 C 389.623 70.094,389.794 70.000,389.930 70.000 C 390.066 70.000,390.220 69.887,390.273 69.750 C 390.326 69.612,390.455 69.499,390.559 69.498 C 391.087 69.492,394.246 66.401,395.250 64.908 C 395.617 64.363,395.954 63.879,396.000 63.833 C 396.046 63.788,396.196 63.525,396.333 63.250 C 396.471 62.975,396.631 62.712,396.690 62.667 C 396.749 62.621,397.035 62.096,397.326 61.500 C 397.617 60.904,397.954 60.229,398.075 60.000 C 398.196 59.771,398.347 59.340,398.411 59.042 C 398.474 58.744,398.581 58.500,398.647 58.500 C 398.813 58.500,399.167 56.711,399.167 55.865 L 399.167 55.167 394.958 55.169 C 390.273 55.172,390.443 55.137,390.172 56.147 C 390.064 56.549,389.908 56.999,389.825 57.147 C 389.743 57.295,389.559 57.679,389.418 58.000 C 388.378 60.360,385.399 63.559,383.890 63.938 C 383.676 63.992,383.500 64.097,383.500 64.172 C 383.500 64.246,383.219 64.398,382.875 64.509 C 382.531 64.620,382.175 64.767,382.083 64.837 C 381.992 64.906,381.467 65.059,380.917 65.176 C 380.367 65.293,379.812 65.469,379.684 65.568 C 379.368 65.812,373.632 65.812,373.316 65.568 C 373.188 65.469,372.637 65.292,372.092 65.175 C 371.546 65.057,370.984 64.897,370.842 64.818 C 370.700 64.739,370.321 64.559,370.000 64.416 C 368.344 63.682,367.025 62.494,365.374 60.249 C 365.109 59.889,364.167 57.905,364.167 57.708 C 364.167 57.594,364.098 57.500,364.015 57.500 C 363.931 57.500,363.814 57.212,363.754 56.860 C 363.695 56.508,363.537 56.010,363.404 55.753 C 363.271 55.496,363.083 54.753,362.986 54.102 C 362.889 53.450,362.748 52.800,362.673 52.656 C 362.598 52.513,362.482 51.594,362.415 50.615 L 362.294 48.833 381.172 48.833 L 400.050 48.833 399.937 45.125 C 399.817 41.176,399.576 38.130,399.340 37.583 C 399.260 37.400,399.102 36.650,398.987 35.917 C 398.872 35.183,398.730 34.546,398.671 34.500 C 398.611 34.454,398.468 33.985,398.353 33.458 C 398.237 32.931,398.073 32.500,397.988 32.500 C 397.903 32.500,397.833 32.369,397.833 32.208 C 397.833 31.906,396.355 28.868,396.016 28.473 C 395.911 28.351,395.606 27.912,395.340 27.499 C 394.709 26.521,391.745 23.672,391.125 23.449 C 390.965 23.391,390.833 23.280,390.833 23.203 C 390.833 23.126,390.571 22.959,390.250 22.833 C 389.929 22.707,389.667 22.550,389.667 22.483 C 389.667 22.416,389.160 22.117,388.542 21.818 C 387.923 21.519,387.379 21.223,387.333 21.161 C 387.287 21.099,386.950 20.953,386.583 20.836 C 386.217 20.719,385.842 20.570,385.750 20.504 C 385.658 20.439,385.208 20.287,384.750 20.167 C 384.292 20.047,383.837 19.887,383.739 19.812 C 383.641 19.737,383.003 19.591,382.322 19.487 C 381.641 19.383,380.944 19.226,380.775 19.137 C 380.449 18.967,375.666 18.821,374.250 18.938 M323.333 19.167 C 323.196 19.256,322.752 19.329,322.347 19.331 C 321.465 19.334,319.484 19.656,319.250 19.835 C 319.158 19.905,318.763 20.015,318.372 20.080 C 317.980 20.144,317.554 20.303,317.425 20.432 C 317.296 20.561,317.091 20.667,316.970 20.667 C 316.518 20.669,313.684 22.272,312.667 23.101 C 312.264 23.430,308.606 27.079,308.339 27.419 C 307.789 28.119,306.686 29.842,306.586 30.160 C 306.526 30.347,306.408 30.500,306.322 30.500 C 306.237 30.500,306.167 30.579,306.167 30.675 C 306.167 30.771,306.013 31.165,305.825 31.550 C 305.224 32.782,304.523 34.623,304.405 35.280 C 304.342 35.630,304.226 35.998,304.147 36.098 C 304.068 36.198,303.914 36.873,303.803 37.598 C 303.693 38.323,303.552 38.954,303.490 39.000 C 302.836 39.482,302.837 53.420,303.492 54.917 C 303.572 55.100,303.730 55.831,303.842 56.542 C 303.955 57.252,304.100 57.833,304.164 57.833 C 304.228 57.833,304.376 58.265,304.493 58.792 C 304.610 59.319,305.075 60.500,305.527 61.417 C 306.641 63.678,306.826 64.000,307.009 64.000 C 307.096 64.000,307.167 64.080,307.167 64.178 C 307.167 64.734,310.893 68.328,311.859 68.703 C 312.028 68.769,312.167 68.895,312.167 68.984 C 312.167 69.073,312.429 69.240,312.750 69.356 C 313.071 69.472,313.333 69.622,313.333 69.689 C 313.333 69.757,313.596 69.907,313.917 70.023 C 314.237 70.139,314.500 70.284,314.500 70.345 C 314.500 70.406,314.837 70.551,315.250 70.667 C 315.662 70.782,316.000 70.934,316.000 71.005 C 316.000 71.076,316.394 71.226,316.875 71.339 C 317.356 71.451,317.834 71.610,317.938 71.692 C 318.041 71.773,318.753 71.921,319.521 72.020 C 320.289 72.120,321.047 72.268,321.206 72.350 C 321.610 72.559,327.120 72.543,327.250 72.333 C 327.307 72.242,327.624 72.167,327.955 72.167 C 328.721 72.167,330.698 71.832,330.917 71.665 C 331.008 71.596,331.340 71.484,331.653 71.417 C 332.347 71.268,335.167 69.846,335.167 69.645 C 335.167 69.565,335.279 69.500,335.415 69.500 C 335.552 69.500,335.758 69.350,335.872 69.167 C 335.987 68.983,336.156 68.832,336.248 68.831 C 336.502 68.828,338.160 67.187,338.917 66.191 L 339.583 65.313 339.629 68.112 C 339.654 69.651,339.604 71.100,339.516 71.330 C 339.429 71.561,339.308 72.462,339.248 73.333 C 339.187 74.204,339.075 75.217,338.997 75.583 C 338.614 77.394,338.270 78.587,338.076 78.781 C 337.957 78.900,337.812 79.217,337.753 79.487 C 337.694 79.756,337.538 80.066,337.406 80.176 C 337.274 80.285,337.167 80.445,337.167 80.532 C 337.167 80.783,336.314 81.846,335.500 82.609 C 333.393 84.583,330.567 85.701,327.292 85.858 C 326.856 85.879,326.500 85.962,326.500 86.043 C 326.500 86.210,324.462 86.116,322.333 85.852 C 321.064 85.694,318.380 84.942,318.167 84.683 C 318.121 84.628,317.858 84.471,317.583 84.334 C 316.796 83.941,315.075 82.146,314.825 81.458 C 314.701 81.114,314.546 80.833,314.480 80.833 C 314.414 80.833,314.308 80.590,314.246 80.292 C 314.183 79.994,314.031 79.525,313.909 79.250 C 313.786 78.975,313.663 78.563,313.635 78.333 L 313.583 77.917 309.017 77.872 L 304.450 77.828 304.553 79.165 C 304.642 80.311,305.321 83.067,305.643 83.583 C 305.701 83.675,305.827 83.975,305.923 84.250 C 306.340 85.431,309.100 88.978,309.625 89.007 C 309.694 89.010,310.010 89.235,310.327 89.507 C 310.644 89.778,311.001 90.000,311.119 90.000 C 311.237 90.000,311.333 90.070,311.333 90.156 C 311.333 90.242,311.596 90.407,311.917 90.523 C 312.237 90.639,312.500 90.791,312.500 90.860 C 312.500 90.930,312.800 91.077,313.167 91.186 C 313.533 91.296,313.833 91.433,313.833 91.490 C 313.833 91.547,314.190 91.696,314.625 91.821 C 315.060 91.946,315.496 92.110,315.594 92.186 C 315.692 92.261,316.254 92.443,316.844 92.589 C 317.434 92.735,318.179 92.922,318.500 93.003 C 321.167 93.677,330.796 93.564,332.417 92.840 C 332.600 92.758,333.162 92.600,333.667 92.490 C 334.171 92.380,334.659 92.230,334.752 92.157 C 334.845 92.084,335.276 91.935,335.711 91.826 C 336.145 91.717,336.500 91.567,336.500 91.493 C 336.500 91.420,336.726 91.310,337.002 91.250 C 337.278 91.189,337.596 91.052,337.710 90.945 C 337.824 90.838,338.179 90.619,338.500 90.459 C 339.368 90.027,339.655 89.830,340.736 88.923 C 341.998 87.864,343.500 86.327,343.500 86.094 C 343.500 85.995,343.650 85.820,343.833 85.705 C 344.017 85.591,344.167 85.385,344.167 85.249 C 344.167 85.112,344.233 85.000,344.313 85.000 C 344.394 85.000,344.558 84.756,344.679 84.458 C 344.799 84.160,344.956 83.876,345.027 83.827 C 345.201 83.706,346.000 82.191,346.000 81.982 C 346.000 81.890,346.152 81.482,346.338 81.074 C 346.523 80.667,346.721 80.090,346.778 79.792 C 346.834 79.494,346.940 79.173,347.012 79.080 C 347.085 78.986,347.231 78.386,347.337 77.746 C 347.443 77.107,347.592 76.464,347.667 76.317 C 347.789 76.081,347.877 75.322,348.266 71.167 C 348.321 70.571,348.398 58.965,348.436 45.375 L 348.504 20.667 344.252 20.667 L 340.000 20.667 340.000 23.579 L 340.000 26.491 338.042 24.561 C 335.759 22.310,335.601 22.167,335.416 22.167 C 335.339 22.167,335.158 22.065,335.013 21.941 C 334.442 21.453,331.881 20.266,331.000 20.083 C 330.679 20.016,330.338 19.899,330.242 19.822 C 330.146 19.745,329.358 19.600,328.492 19.501 C 327.626 19.401,326.597 19.248,326.206 19.160 C 325.292 18.954,323.656 18.958,323.333 19.167 M232.113 27.014 C 232.830 27.114,233.492 27.254,233.583 27.325 C 233.675 27.396,233.975 27.507,234.250 27.572 C 234.817 27.705,236.402 28.457,236.909 28.833 C 237.727 29.440,239.843 31.625,240.016 32.042 C 240.121 32.294,240.268 32.500,240.343 32.500 C 240.417 32.500,240.573 32.762,240.689 33.083 C 240.805 33.404,240.957 33.667,241.027 33.667 C 241.097 33.667,241.262 34.031,241.394 34.477 C 241.527 34.923,241.713 35.429,241.808 35.602 C 242.138 36.201,242.672 38.172,242.853 39.458 C 242.953 40.169,243.121 40.930,243.226 41.150 C 243.488 41.701,243.480 49.983,243.217 50.526 C 243.113 50.741,242.938 51.629,242.829 52.500 C 242.720 53.371,242.574 54.158,242.504 54.250 C 242.434 54.342,242.281 54.829,242.163 55.333 C 242.046 55.837,241.855 56.400,241.739 56.583 C 241.623 56.767,241.435 57.235,241.321 57.625 C 241.207 58.015,241.060 58.333,240.994 58.333 C 240.928 58.333,240.775 58.577,240.655 58.875 C 240.535 59.173,240.338 59.477,240.218 59.550 C 240.098 59.623,240.000 59.767,240.000 59.869 C 240.000 60.101,239.855 60.267,238.202 61.917 C 236.709 63.407,236.620 63.482,235.917 63.833 C 235.642 63.970,235.379 64.125,235.333 64.176 C 235.287 64.227,234.987 64.373,234.667 64.500 C 234.346 64.627,234.046 64.782,234.000 64.844 C 233.625 65.352,228.098 65.915,227.258 65.531 C 227.070 65.445,226.439 65.285,225.856 65.177 C 225.273 65.068,224.673 64.916,224.523 64.839 C 224.373 64.761,223.744 64.451,223.125 64.148 C 222.506 63.846,222.000 63.544,222.000 63.477 C 222.000 63.410,221.863 63.312,221.695 63.259 C 221.437 63.177,220.441 62.236,219.500 61.185 C 219.063 60.697,218.371 59.597,218.255 59.208 C 218.194 59.002,218.074 58.833,217.989 58.833 C 217.903 58.833,217.833 58.737,217.833 58.619 C 217.833 58.500,217.681 58.107,217.494 57.744 C 217.308 57.380,217.072 56.746,216.970 56.333 C 216.868 55.921,216.729 55.508,216.660 55.417 C 216.591 55.325,216.445 54.650,216.337 53.917 C 216.228 53.183,216.051 52.403,215.944 52.183 C 215.681 51.640,215.680 43.034,215.943 42.477 C 216.046 42.260,216.219 41.296,216.328 40.334 C 216.438 39.372,216.584 38.510,216.653 38.417 C 216.722 38.325,216.874 37.800,216.991 37.250 C 217.108 36.700,217.263 36.175,217.335 36.083 C 217.407 35.992,217.560 35.598,217.676 35.208 C 217.791 34.819,217.937 34.500,218.000 34.500 C 218.062 34.500,218.212 34.200,218.333 33.833 C 218.454 33.467,218.616 33.167,218.693 33.167 C 218.770 33.167,218.833 33.085,218.833 32.986 C 218.833 32.801,219.712 31.491,220.167 30.997 C 220.304 30.848,220.618 30.506,220.865 30.238 C 221.111 29.970,221.552 29.563,221.844 29.333 C 222.135 29.104,222.459 28.842,222.562 28.750 C 222.665 28.658,222.975 28.471,223.250 28.334 C 223.525 28.196,223.787 28.041,223.833 27.988 C 223.879 27.935,224.292 27.791,224.750 27.667 C 225.208 27.543,225.623 27.383,225.672 27.312 C 225.944 26.913,230.025 26.724,232.113 27.014 M378.897 27.002 C 379.803 27.090,380.628 27.228,380.730 27.308 C 380.833 27.388,381.165 27.500,381.468 27.558 C 382.420 27.738,384.657 28.888,385.408 29.583 C 385.606 29.767,385.951 30.075,386.176 30.268 C 386.690 30.711,387.003 31.097,387.742 32.202 C 388.067 32.687,388.389 33.158,388.458 33.250 C 388.675 33.539,389.359 35.222,389.541 35.917 C 389.637 36.283,389.777 36.663,389.853 36.761 C 389.928 36.859,390.084 37.628,390.199 38.469 C 390.313 39.311,390.465 40.000,390.537 40.000 C 390.608 40.000,390.667 40.375,390.667 40.833 L 390.667 41.667 376.583 41.667 L 362.500 41.667 362.500 41.164 C 362.500 40.888,362.569 40.532,362.654 40.373 C 362.738 40.214,362.896 39.427,363.004 38.625 C 363.113 37.823,363.256 37.167,363.324 37.167 C 363.392 37.167,363.539 36.754,363.652 36.250 C 363.765 35.746,363.924 35.333,364.005 35.333 C 364.087 35.333,364.243 35.033,364.353 34.667 C 364.463 34.300,364.604 34.000,364.666 34.000 C 364.729 34.000,364.867 33.810,364.973 33.577 C 365.079 33.344,365.240 33.063,365.331 32.952 C 365.422 32.841,365.891 32.262,366.373 31.667 C 366.855 31.071,367.312 30.557,367.387 30.524 C 367.463 30.491,367.838 30.172,368.221 29.815 C 368.603 29.458,369.123 29.073,369.375 28.959 C 369.627 28.845,369.833 28.707,369.833 28.653 C 369.833 28.598,370.133 28.454,370.500 28.333 C 370.867 28.212,371.167 28.059,371.167 27.993 C 371.167 27.927,371.522 27.783,371.956 27.674 C 372.390 27.565,372.831 27.405,372.934 27.319 C 373.398 26.934,376.499 26.769,378.897 27.002 M328.333 27.333 C 328.333 27.425,328.525 27.500,328.760 27.500 C 329.268 27.500,330.715 27.844,330.833 27.992 C 330.879 28.050,331.235 28.200,331.625 28.325 C 332.015 28.451,332.333 28.616,332.333 28.693 C 332.333 28.770,332.415 28.833,332.514 28.833 C 332.869 28.833,334.266 29.935,335.367 31.083 C 336.876 32.658,336.916 32.707,337.182 33.308 C 337.310 33.597,337.459 33.833,337.514 33.833 C 337.569 33.833,337.712 34.133,337.833 34.500 C 337.954 34.867,338.104 35.167,338.167 35.167 C 338.229 35.167,338.380 35.583,338.502 36.091 C 338.624 36.600,338.779 37.050,338.847 37.092 C 338.915 37.134,339.064 37.711,339.178 38.376 C 339.293 39.040,339.445 39.661,339.517 39.755 C 340.019 40.417,340.015 51.000,339.513 51.331 C 339.441 51.378,339.287 52.035,339.171 52.792 C 339.054 53.548,338.902 54.167,338.832 54.167 C 338.761 54.167,338.651 54.448,338.587 54.792 C 338.523 55.135,338.290 55.813,338.069 56.297 C 337.847 56.781,337.667 57.249,337.667 57.338 C 337.667 57.427,337.597 57.500,337.511 57.500 C 337.426 57.500,337.306 57.669,337.245 57.875 C 337.152 58.187,336.679 58.984,336.131 59.750 C 335.250 60.981,332.833 63.077,332.073 63.267 C 331.850 63.324,331.667 63.436,331.667 63.518 C 331.667 63.600,331.588 63.667,331.492 63.667 C 331.396 63.667,331.002 63.820,330.617 64.007 C 330.232 64.194,329.373 64.433,328.708 64.537 C 328.044 64.641,327.500 64.788,327.500 64.863 C 327.500 65.053,323.063 65.036,322.706 64.845 C 322.547 64.760,321.948 64.600,321.375 64.489 C 320.802 64.378,320.333 64.235,320.333 64.171 C 320.333 64.106,320.033 63.954,319.667 63.833 C 319.300 63.712,319.000 63.562,319.000 63.500 C 319.000 63.438,318.818 63.304,318.596 63.203 C 317.792 62.837,315.598 60.738,315.415 60.160 C 315.358 59.981,315.250 59.833,315.176 59.833 C 315.101 59.833,314.947 59.608,314.833 59.333 C 314.719 59.058,314.572 58.833,314.506 58.833 C 314.441 58.833,314.288 58.533,314.167 58.167 C 314.046 57.800,313.898 57.500,313.839 57.500 C 313.779 57.500,313.593 56.956,313.424 56.292 C 313.255 55.627,313.057 55.005,312.983 54.909 C 312.909 54.813,312.762 54.025,312.657 53.159 C 312.552 52.292,312.396 51.433,312.310 51.250 C 312.109 50.819,312.233 43.513,312.471 41.744 C 312.824 39.114,313.567 35.987,313.867 35.861 C 313.940 35.831,314.000 35.686,314.000 35.541 C 314.000 35.253,314.956 33.206,315.241 32.885 C 315.338 32.776,315.604 32.418,315.833 32.089 C 316.300 31.420,317.626 30.028,318.104 29.706 C 318.276 29.590,318.642 29.351,318.917 29.174 C 319.192 28.998,319.501 28.779,319.604 28.690 C 319.707 28.600,320.101 28.433,320.479 28.320 C 320.857 28.207,321.167 28.058,321.167 27.989 C 321.167 27.920,321.710 27.770,322.375 27.656 C 323.040 27.543,323.655 27.386,323.742 27.308 C 323.971 27.104,328.333 27.128,328.333 27.333 M288.833 50.417 C 288.833 53.250,288.774 54.833,288.667 54.833 C 288.575 54.833,288.500 55.047,288.500 55.308 C 288.500 55.769,288.292 56.566,287.994 57.250 C 287.438 58.523,287.294 58.819,286.951 59.386 C 286.452 60.214,285.072 61.626,284.147 62.254 C 283.745 62.527,283.392 62.806,283.361 62.875 C 283.331 62.944,283.230 63.000,283.137 63.000 C 283.044 63.000,282.769 63.140,282.526 63.311 C 282.282 63.482,281.802 63.722,281.458 63.844 C 281.115 63.967,280.833 64.113,280.833 64.169 C 280.833 64.225,280.458 64.366,280.000 64.484 C 279.542 64.601,279.167 64.754,279.167 64.822 C 279.167 64.891,278.623 65.042,277.958 65.159 C 277.294 65.276,276.651 65.452,276.529 65.550 C 275.773 66.160,268.500 65.499,268.500 64.821 C 268.500 64.756,268.331 64.660,268.125 64.608 C 267.488 64.448,265.167 62.404,265.167 62.004 C 265.167 61.923,265.056 61.746,264.920 61.611 C 264.785 61.475,264.580 61.001,264.465 60.557 C 264.350 60.113,264.193 59.705,264.116 59.650 C 263.724 59.367,264.328 54.526,264.799 54.172 C 264.864 54.123,265.030 53.859,265.167 53.585 C 265.639 52.644,267.508 51.037,268.458 50.755 C 268.665 50.694,268.833 50.584,268.833 50.510 C 268.833 50.436,269.283 50.275,269.833 50.153 C 270.383 50.031,270.833 49.879,270.833 49.816 C 270.833 49.753,271.490 49.607,272.292 49.491 C 273.094 49.376,273.825 49.228,273.917 49.162 C 274.008 49.096,275.096 48.947,276.333 48.831 C 277.571 48.715,278.655 48.555,278.742 48.476 C 278.829 48.398,279.241 48.329,279.658 48.324 C 280.891 48.309,285.650 47.414,285.833 47.163 C 285.879 47.100,286.296 46.958,286.760 46.849 C 287.223 46.739,287.823 46.503,288.093 46.326 C 288.363 46.148,288.640 46.002,288.708 46.001 C 288.777 46.000,288.833 47.987,288.833 50.417 "
              stroke="none" fill="#7c7c83" fill-rule="evenodd"></path>
        <path id="path1"
              d="M21.167 0.160 C 18.466 0.331,17.167 0.502,17.167 0.686 C 17.167 0.767,16.975 0.833,16.740 0.833 C 16.232 0.833,14.785 1.177,14.667 1.326 C 14.621 1.383,14.265 1.533,13.875 1.659 C 13.485 1.784,13.167 1.931,13.167 1.986 C 13.167 2.041,12.944 2.184,12.671 2.304 C 12.070 2.571,10.716 3.840,10.064 4.750 C 9.800 5.117,9.541 5.454,9.487 5.500 C 9.288 5.669,8.489 7.512,8.387 8.039 C 8.329 8.338,8.230 8.621,8.168 8.667 C 8.017 8.778,7.667 10.979,7.667 11.814 C 7.667 12.180,7.592 12.527,7.500 12.583 C 7.397 12.647,7.333 14.030,7.333 16.177 L 7.333 19.667 3.667 19.667 L 0.000 19.667 0.000 24.667 L 0.000 29.667 3.833 29.667 L 7.667 29.667 7.667 50.750 L 7.667 71.833 14.583 71.833 L 21.500 71.833 21.500 50.750 L 21.500 29.667 25.917 29.667 L 30.333 29.667 30.333 24.667 L 30.333 19.667 25.917 19.667 L 21.500 19.667 21.500 17.188 C 21.500 13.637,22.246 12.156,24.163 11.901 C 24.623 11.840,25.000 11.725,25.000 11.645 C 25.000 11.565,25.488 11.500,26.083 11.500 C 26.694 11.500,27.167 11.573,27.167 11.667 C 27.167 11.765,27.778 11.833,28.667 11.833 L 30.167 11.833 30.167 6.000 L 30.167 0.167 29.042 0.166 C 28.423 0.166,26.867 0.134,25.583 0.096 C 24.300 0.058,22.313 0.087,21.167 0.160 M82.101 1.097 C 81.890 1.647,81.988 71.421,82.200 71.633 C 82.349 71.782,84.152 71.833,89.283 71.833 L 96.167 71.833 96.167 36.333 L 96.167 0.833 89.184 0.833 C 82.971 0.833,82.191 0.862,82.101 1.097 M153.167 36.417 L 153.167 71.833 160.243 71.833 L 167.320 71.833 167.368 55.442 C 167.402 44.018,167.471 38.980,167.597 38.817 C 167.696 38.689,167.915 37.965,168.082 37.208 C 168.250 36.452,168.439 35.833,168.501 35.833 C 168.563 35.833,168.704 35.533,168.814 35.167 C 168.923 34.800,169.070 34.500,169.140 34.500 C 169.209 34.500,169.359 34.245,169.472 33.933 C 169.584 33.620,169.787 33.323,169.922 33.271 C 170.056 33.219,170.167 33.092,170.167 32.987 C 170.167 32.748,171.606 31.417,172.165 31.139 C 172.395 31.025,172.696 30.844,172.833 30.737 C 172.971 30.630,173.383 30.448,173.750 30.333 C 174.117 30.217,174.497 30.060,174.594 29.983 C 175.316 29.415,180.114 29.478,181.251 30.071 C 181.526 30.214,181.821 30.332,181.908 30.332 C 182.119 30.334,183.300 31.154,183.787 31.638 C 184.224 32.073,185.167 33.758,185.167 34.107 C 185.167 34.231,185.231 34.333,185.311 34.333 C 185.390 34.333,185.545 34.802,185.656 35.375 C 185.767 35.948,185.946 36.567,186.054 36.750 C 186.200 36.998,186.263 41.505,186.301 54.458 L 186.353 71.833 193.518 71.833 L 200.684 71.833 200.634 51.708 C 200.597 36.987,200.532 31.494,200.393 31.250 C 200.288 31.067,200.116 30.357,200.012 29.673 C 199.908 28.989,199.765 28.389,199.695 28.340 C 199.625 28.290,199.474 27.931,199.360 27.542 C 199.246 27.152,199.096 26.833,199.027 26.833 C 198.957 26.833,198.805 26.571,198.689 26.250 C 198.573 25.929,198.417 25.667,198.343 25.667 C 198.268 25.667,198.114 25.442,198.000 25.167 C 197.886 24.892,197.743 24.667,197.682 24.667 C 197.622 24.667,197.449 24.460,197.298 24.208 C 196.977 23.672,195.253 21.879,194.659 21.464 C 194.434 21.306,193.930 20.951,193.540 20.675 C 193.149 20.398,192.643 20.125,192.415 20.068 C 192.187 20.011,192.000 19.903,192.000 19.828 C 192.000 19.754,191.719 19.602,191.375 19.491 C 191.031 19.380,190.674 19.230,190.581 19.157 C 190.488 19.084,190.038 18.933,189.581 18.822 C 189.124 18.710,188.667 18.554,188.565 18.475 C 187.888 17.949,180.986 17.634,178.449 18.012 C 176.430 18.313,172.000 20.035,172.000 20.518 C 172.000 20.600,171.906 20.668,171.792 20.670 C 171.397 20.675,169.350 22.532,168.477 23.674 C 168.236 23.991,167.879 24.430,167.686 24.651 L 167.333 25.051 167.333 13.026 L 167.333 1.000 160.250 1.000 L 153.167 1.000 153.167 36.417 M47.754 18.174 C 47.023 18.257,46.235 18.398,46.004 18.489 C 45.773 18.579,45.283 18.701,44.917 18.760 C 44.014 18.904,41.597 19.690,41.528 19.862 C 41.497 19.938,41.339 20.000,41.176 20.000 C 40.898 20.000,39.014 20.922,38.833 21.147 C 38.787 21.204,38.527 21.363,38.255 21.500 C 37.624 21.818,37.427 21.984,35.867 23.500 C 34.146 25.172,32.739 27.355,32.160 29.250 C 32.048 29.617,31.893 29.997,31.816 30.095 C 31.739 30.193,31.583 30.830,31.469 31.511 C 31.355 32.193,31.203 32.792,31.132 32.843 C 31.060 32.894,30.952 33.738,30.892 34.718 L 30.783 36.500 37.547 36.500 C 45.162 36.500,44.377 36.653,44.593 35.125 C 44.654 34.690,44.771 34.333,44.852 34.333 C 44.934 34.333,45.000 34.228,45.000 34.100 C 45.000 31.984,48.561 29.500,51.596 29.500 C 51.991 29.500,52.364 29.418,52.426 29.318 C 52.496 29.204,52.800 29.175,53.228 29.240 C 53.607 29.297,54.254 29.381,54.667 29.426 C 56.813 29.659,58.042 29.875,58.456 30.091 C 58.709 30.223,59.000 30.332,59.102 30.332 C 59.204 30.333,59.579 30.565,59.935 30.848 C 62.796 33.121,62.003 37.489,58.542 38.527 C 58.152 38.644,57.833 38.787,57.833 38.846 C 57.833 38.904,57.140 39.048,56.292 39.167 C 55.444 39.285,54.675 39.437,54.583 39.504 C 54.492 39.571,52.992 39.751,51.250 39.903 C 49.508 40.056,47.933 40.247,47.750 40.329 C 47.567 40.410,46.667 40.564,45.750 40.671 C 44.833 40.778,44.008 40.923,43.917 40.994 C 43.825 41.065,43.225 41.218,42.583 41.333 C 41.942 41.449,41.342 41.599,41.250 41.667 C 41.158 41.734,40.689 41.882,40.208 41.995 C 39.726 42.108,39.292 42.266,39.242 42.346 C 39.193 42.426,38.837 42.576,38.451 42.679 C 38.066 42.783,37.712 42.916,37.667 42.976 C 37.621 43.035,37.321 43.218,37.000 43.383 C 35.778 44.012,35.500 44.190,35.500 44.342 C 35.500 44.429,35.406 44.500,35.292 44.500 C 35.098 44.500,34.848 44.687,33.608 45.756 C 32.983 46.295,31.542 48.104,31.413 48.512 C 31.357 48.689,31.253 48.833,31.182 48.833 C 31.111 48.833,30.954 49.133,30.833 49.500 C 30.712 49.867,30.558 50.167,30.490 50.167 C 30.422 50.167,30.273 50.560,30.159 51.042 C 30.045 51.523,29.900 51.954,29.837 52.000 C 29.673 52.119,29.333 53.938,29.333 54.694 C 29.333 55.046,29.258 55.333,29.167 55.333 C 28.956 55.333,28.940 59.722,29.150 60.127 C 29.232 60.286,29.381 61.049,29.481 61.822 C 29.581 62.596,29.728 63.271,29.807 63.322 C 29.887 63.374,30.045 63.810,30.159 64.292 C 30.273 64.773,30.422 65.167,30.490 65.167 C 30.558 65.167,30.711 65.463,30.830 65.825 C 30.950 66.187,31.149 66.522,31.274 66.569 C 31.398 66.617,31.500 66.754,31.500 66.874 C 31.500 66.994,31.631 67.219,31.792 67.373 C 31.952 67.526,32.346 67.979,32.667 68.378 C 32.987 68.777,33.531 69.324,33.874 69.593 C 34.217 69.863,34.657 70.212,34.852 70.370 C 35.047 70.528,35.347 70.702,35.520 70.756 C 35.692 70.811,35.833 70.921,35.833 71.000 C 35.833 71.080,36.096 71.240,36.417 71.356 C 36.737 71.472,37.000 71.615,37.000 71.673 C 37.000 71.732,37.319 71.883,37.708 72.008 C 38.098 72.133,38.454 72.283,38.500 72.340 C 38.546 72.398,39.071 72.574,39.667 72.732 C 40.262 72.890,41.012 73.092,41.333 73.181 C 42.911 73.619,50.518 73.485,50.830 73.014 C 50.878 72.943,51.245 72.833,51.646 72.770 C 52.047 72.707,52.687 72.514,53.068 72.340 C 53.450 72.167,53.965 71.973,54.214 71.911 C 54.463 71.848,54.667 71.745,54.667 71.682 C 54.667 71.619,54.943 71.467,55.280 71.345 C 55.618 71.223,55.974 71.056,56.072 70.974 C 56.170 70.892,56.625 70.584,57.083 70.290 C 57.995 69.706,58.208 69.551,58.658 69.146 C 58.823 68.997,59.038 68.847,59.136 68.813 C 59.337 68.742,60.815 67.497,61.574 66.758 L 62.080 66.266 62.197 66.925 C 62.262 67.287,62.318 67.865,62.324 68.208 C 62.329 68.552,62.394 68.833,62.467 68.833 C 62.541 68.833,62.696 69.396,62.812 70.083 C 62.927 70.771,63.092 71.333,63.178 71.333 C 63.263 71.333,63.333 71.446,63.333 71.583 C 63.333 71.802,64.296 71.833,71.000 71.833 L 78.667 71.833 78.667 70.595 C 78.667 69.531,78.623 69.342,78.355 69.257 C 77.631 69.027,76.522 67.736,76.331 66.900 C 76.228 66.451,76.061 65.933,75.958 65.750 C 75.826 65.513,75.745 60.319,75.678 47.817 C 75.610 35.270,75.530 30.150,75.398 29.984 C 75.296 29.855,75.162 29.422,75.101 29.021 C 75.040 28.620,74.851 27.982,74.681 27.604 C 74.512 27.226,74.322 26.748,74.259 26.542 C 74.196 26.335,74.082 26.167,74.007 26.167 C 73.931 26.167,73.827 25.998,73.775 25.792 C 73.588 25.048,71.233 22.538,70.360 22.152 C 70.071 22.024,69.833 21.868,69.833 21.807 C 69.833 21.705,69.231 21.397,66.989 20.354 C 66.571 20.159,66.106 20.000,65.957 20.000 C 65.808 20.000,65.645 19.933,65.594 19.850 C 65.543 19.768,65.107 19.608,64.626 19.495 C 64.144 19.382,63.674 19.230,63.580 19.156 C 63.487 19.083,62.812 18.909,62.080 18.770 C 61.349 18.631,60.413 18.433,60.000 18.331 C 59.044 18.094,49.545 17.972,47.754 18.174 M118.917 18.180 C 118.183 18.266,117.433 18.403,117.250 18.485 C 117.067 18.567,116.373 18.723,115.709 18.832 C 115.045 18.941,114.465 19.089,114.421 19.160 C 114.376 19.232,114.113 19.336,113.834 19.391 C 112.952 19.568,110.676 20.665,109.250 21.600 C 107.447 22.784,104.986 25.416,104.730 26.436 C 104.679 26.641,104.538 26.847,104.417 26.893 C 104.297 26.940,104.148 27.208,104.086 27.489 C 104.024 27.770,103.911 28.000,103.835 28.000 C 103.760 28.000,103.601 28.375,103.484 28.833 C 103.366 29.292,103.220 29.667,103.158 29.667 C 103.096 29.667,102.948 30.135,102.828 30.708 C 102.708 31.281,102.559 31.787,102.497 31.833 C 102.351 31.940,102.000 34.691,102.000 35.721 L 102.000 36.504 108.782 36.460 L 115.565 36.417 115.793 35.170 C 115.919 34.484,116.077 33.884,116.145 33.836 C 116.213 33.789,116.373 33.487,116.500 33.167 C 116.627 32.846,116.829 32.523,116.949 32.450 C 117.069 32.377,117.167 32.228,117.167 32.120 C 117.167 31.106,120.483 29.514,122.615 29.504 C 123.091 29.502,123.531 29.418,123.593 29.317 C 123.662 29.206,123.941 29.176,124.311 29.240 C 124.644 29.298,125.629 29.413,126.500 29.496 C 128.355 29.672,129.186 29.813,129.417 29.993 C 129.508 30.065,129.865 30.214,130.208 30.325 C 130.552 30.435,130.833 30.586,130.833 30.659 C 130.833 30.733,131.040 30.878,131.292 30.983 C 132.296 31.399,133.040 33.707,132.764 35.548 C 132.651 36.300,131.491 37.833,131.035 37.833 C 130.918 37.833,130.781 37.941,130.731 38.073 C 130.680 38.205,130.401 38.363,130.111 38.424 C 129.821 38.485,129.358 38.634,129.083 38.755 C 128.473 39.023,126.994 39.333,126.325 39.333 C 126.055 39.333,125.833 39.395,125.833 39.471 C 125.833 39.547,124.318 39.743,122.467 39.907 C 120.615 40.071,118.984 40.265,118.842 40.339 C 118.700 40.412,117.833 40.561,116.917 40.669 C 116.000 40.777,115.175 40.924,115.083 40.996 C 114.992 41.067,114.393 41.215,113.753 41.324 C 113.113 41.434,112.513 41.584,112.420 41.659 C 112.326 41.734,111.987 41.849,111.667 41.916 C 111.346 41.983,110.781 42.174,110.411 42.340 C 110.041 42.506,109.535 42.693,109.286 42.756 C 109.037 42.818,108.833 42.921,108.833 42.985 C 108.833 43.048,108.571 43.195,108.250 43.311 C 107.929 43.427,107.667 43.592,107.667 43.677 C 107.667 43.763,107.569 43.833,107.449 43.833 C 107.241 43.833,106.623 44.243,105.621 45.046 C 104.448 45.986,103.235 47.313,102.834 48.096 C 102.696 48.364,102.530 48.624,102.464 48.673 C 102.279 48.812,101.500 50.326,101.499 50.550 C 101.498 50.660,101.388 50.961,101.253 51.219 C 101.119 51.477,100.922 52.152,100.817 52.719 C 100.712 53.286,100.541 53.930,100.438 54.150 C 100.191 54.676,100.178 61.129,100.423 61.298 C 100.518 61.363,100.689 61.976,100.803 62.660 C 100.918 63.344,101.078 63.945,101.159 63.995 C 101.240 64.046,101.361 64.311,101.427 64.585 C 101.535 65.034,102.264 66.459,102.492 66.667 C 102.542 66.712,102.840 67.118,103.155 67.569 C 103.778 68.462,104.430 69.133,105.333 69.812 C 105.654 70.053,106.062 70.381,106.240 70.542 C 106.417 70.702,106.661 70.833,106.781 70.833 C 106.902 70.833,107.000 70.899,107.000 70.980 C 107.000 71.060,107.244 71.226,107.542 71.348 C 107.840 71.470,108.179 71.663,108.297 71.778 C 108.415 71.893,108.771 72.036,109.089 72.095 C 109.407 72.155,109.667 72.260,109.667 72.329 C 109.667 72.398,110.135 72.552,110.708 72.672 C 111.281 72.792,111.788 72.946,111.835 73.014 C 112.231 73.599,121.582 73.592,122.000 73.006 C 122.046 72.942,122.552 72.792,123.125 72.672 C 123.698 72.552,124.167 72.404,124.167 72.342 C 124.167 72.280,124.542 72.134,125.000 72.016 C 125.458 71.899,125.833 71.737,125.833 71.658 C 125.833 71.578,126.133 71.423,126.500 71.314 C 126.867 71.204,127.167 71.060,127.167 70.994 C 127.167 70.928,127.392 70.781,127.667 70.667 C 127.942 70.553,128.167 70.406,128.167 70.340 C 128.167 70.274,128.357 70.133,128.590 70.027 C 128.822 69.921,129.103 69.761,129.215 69.670 C 129.326 69.580,129.904 69.126,130.500 68.662 C 131.096 68.198,131.941 67.473,132.378 67.051 C 133.331 66.133,133.339 66.138,133.505 67.791 C 133.578 68.509,133.764 69.506,133.918 70.007 C 134.073 70.507,134.255 71.104,134.322 71.333 L 134.444 71.750 142.139 71.793 L 149.833 71.837 149.833 70.581 C 149.833 69.432,149.801 69.313,149.458 69.182 C 148.830 68.942,147.695 67.780,147.571 67.250 C 147.507 66.975,147.371 66.645,147.269 66.516 C 147.137 66.349,147.059 61.220,147.000 48.635 C 146.944 36.729,146.860 30.949,146.744 30.869 C 146.649 30.803,146.478 30.190,146.363 29.506 C 146.249 28.822,146.095 28.222,146.020 28.173 C 145.946 28.124,145.831 27.858,145.766 27.583 C 145.624 26.983,144.893 25.536,144.567 25.210 C 144.438 25.081,144.333 24.916,144.333 24.843 C 144.333 24.629,142.062 22.402,141.465 22.031 C 140.924 21.695,139.639 21.044,138.156 20.354 C 137.737 20.159,137.268 20.000,137.114 20.000 C 136.960 20.000,136.833 19.937,136.833 19.860 C 136.833 19.783,136.402 19.624,135.875 19.508 C 135.348 19.392,134.840 19.235,134.747 19.160 C 134.653 19.084,133.978 18.909,133.247 18.770 C 132.515 18.631,131.579 18.432,131.167 18.329 C 130.201 18.087,120.704 17.972,118.917 18.180 M310.406 25.037 C 310.045 25.420,309.895 25.625,310.072 25.492 C 310.571 25.117,311.194 24.472,311.124 24.402 C 311.090 24.368,310.767 24.653,310.406 25.037 M369.554 41.625 C 373.480 41.650,379.855 41.650,383.721 41.625 C 387.587 41.600,384.375 41.580,376.583 41.580 C 368.792 41.580,365.629 41.600,369.554 41.625 M302.778 46.111 C 302.626 46.263,302.637 47.295,302.792 47.391 C 302.860 47.433,302.926 47.137,302.937 46.734 C 302.958 45.958,302.953 45.936,302.778 46.111 M61.503 53.157 C 61.403 54.206,61.257 55.144,61.180 55.241 C 61.102 55.337,60.985 55.679,60.919 56.000 C 60.346 58.804,57.142 61.717,53.750 62.518 C 53.292 62.626,52.813 62.796,52.687 62.896 C 52.366 63.148,47.794 63.145,47.484 62.892 C 47.355 62.787,46.931 62.606,46.542 62.491 C 46.152 62.375,45.833 62.216,45.833 62.136 C 45.833 62.057,45.655 61.924,45.438 61.841 C 44.918 61.644,43.893 60.382,43.738 59.749 C 43.670 59.475,43.533 59.196,43.433 59.131 C 43.184 58.969,43.183 54.699,43.431 54.536 C 43.531 54.470,43.692 54.182,43.790 53.895 C 43.888 53.609,44.107 53.208,44.276 53.004 C 44.817 52.354,45.696 51.500,45.824 51.500 C 45.893 51.500,46.120 51.352,46.329 51.170 C 46.538 50.989,46.962 50.793,47.271 50.735 C 47.580 50.677,47.833 50.575,47.833 50.508 C 47.833 50.441,48.265 50.291,48.792 50.175 C 49.319 50.058,49.826 49.901,49.920 49.826 C 50.013 49.751,50.763 49.597,51.586 49.484 C 52.410 49.371,53.121 49.228,53.167 49.168 C 53.212 49.107,54.019 48.958,54.958 48.835 C 55.898 48.713,56.667 48.560,56.667 48.495 C 56.667 48.429,57.055 48.325,57.531 48.262 C 58.006 48.199,58.700 48.010,59.072 47.843 C 59.445 47.676,59.932 47.484,60.155 47.416 C 60.378 47.348,60.791 47.152,61.072 46.980 L 61.583 46.669 61.634 48.960 C 61.662 50.219,61.603 52.108,61.503 53.157 M132.686 53.282 C 132.360 55.665,131.599 57.863,130.796 58.740 C 130.633 58.917,130.500 59.123,130.500 59.197 C 130.500 59.365,129.496 60.333,129.321 60.333 C 129.249 60.333,129.079 60.445,128.943 60.581 C 128.497 61.027,125.903 62.284,124.983 62.499 C 124.488 62.615,123.982 62.791,123.858 62.890 C 123.535 63.146,119.166 63.140,118.651 62.882 C 118.431 62.772,117.987 62.570,117.667 62.433 C 116.924 62.117,116.115 61.632,115.973 61.417 C 115.912 61.325,115.704 61.067,115.510 60.844 C 115.316 60.621,115.114 60.265,115.061 60.053 C 115.007 59.840,114.905 59.667,114.832 59.667 C 114.260 59.667,114.251 54.587,114.822 54.167 C 114.885 54.121,115.030 53.850,115.145 53.564 C 115.549 52.565,117.349 50.993,118.377 50.742 C 118.630 50.680,118.873 50.571,118.917 50.500 C 118.961 50.429,119.485 50.273,120.082 50.154 C 120.678 50.036,121.167 49.885,121.167 49.820 C 121.167 49.755,121.823 49.615,122.625 49.510 C 123.427 49.405,124.202 49.254,124.348 49.175 C 124.494 49.096,125.337 48.940,126.223 48.828 C 127.109 48.717,127.833 48.569,127.833 48.501 C 127.833 48.432,128.222 48.325,128.697 48.262 C 129.173 48.199,129.866 48.010,130.239 47.842 C 130.612 47.675,131.160 47.486,131.458 47.422 C 131.756 47.359,132.000 47.249,132.000 47.179 C 132.000 47.109,132.169 46.976,132.375 46.883 L 132.750 46.716 132.796 49.431 C 132.821 50.925,132.771 52.658,132.686 53.282 M377.167 73.667 C 376.823 73.777,376.809 73.803,377.083 73.814 C 377.267 73.822,377.529 73.756,377.667 73.667 C 377.959 73.478,377.756 73.478,377.167 73.667 M306.708 77.791 C 307.969 77.820,310.031 77.820,311.292 77.791 C 312.552 77.763,311.521 77.740,309.000 77.740 C 306.479 77.740,305.448 77.763,306.708 77.791 "
              stroke="none" fill="#0c4ca4" fill-rule="evenodd"></path>
    </g>
</svg>